# xmcd
#
# Track frame offsets:
#	150
#	9418
#	19698
#	27917
#	40809
#	54437
#	60798
#
# Disc length: 881 seconds
# Revision: 0
# Processed by: cddbd v1.5.2PL0 Copyright (c) Steve Scherf et al.
# Submitted via: dBpowerAMP V12.0
#
DISCID=44036f07
DTITLE=The Grascals - Dance Til Your Stockings Are HOT And RAVELIN'
DYEAR=2010
DGENRE=Country
TTITLE0=Dooley
TTITLE1=Boil Them Cabbage Down
TTITLE2=Stay All Night (Stay A Little Longer)
TTITLE3=Ol' Joe Clark
TTITLE4=Leaning On The Everlasting Arms
TTITLE5=Mayberry's Finest Theme
TTITLE6=Boy, Giraffes Are Selfish
EXTD=
EXTT0=
EXTT1=
EXTT2=
EXTT3=
EXTT4=
EXTT5=
EXTT6=
PLAYORDER=
